<svg width="141.000000" height="50.000000" viewBox="0 0 141 50" fill="none" xmlns="http://www.w3.org/2000/svg" xmlns:xlink="http://www.w3.org/1999/xlink">
	<desc>
			Created with Pixso.
	</desc>
	<defs>
		<clipPath id="clip3006_10947">
			<rect id="option" rx="2.500000" width="140.000000" height="49.000000" transform="translate(0.500000 0.500000)" fill="white" fill-opacity="0"/>
		</clipPath>
	</defs>
	<rect id="option" rx="2.500000" width="140.000000" height="49.000000" transform="translate(0.500000 0.500000)" fill="#F9F9F9" fill-opacity="1.000000"/>
	<g clip-path="url(#clip3006_10947)">
		<path id="Dropdown" d="M23.2637 20.2007Q25.1401 20.2007 26.2031 21.0962Q27.2695 21.9917 27.2695 23.5605Q27.2695 25.1294 26.2031 26.0181Q25.1401 26.9067 23.2637 26.9067L20.6318 26.9067L20.6318 30L19.5962 30L19.5962 20.2007L23.2637 20.2007ZM23.2363 25.9976Q24.6924 25.9976 25.4614 25.3618Q26.2305 24.7227 26.2305 23.5605Q26.2305 22.3711 25.4614 21.7354Q24.6924 21.0962 23.2363 21.0962L20.6318 21.0962L20.6318 25.9976L23.2363 25.9976ZM32.4655 30.0684Q31.4025 30.0684 30.548 29.5864Q29.6935 29.1045 29.2013 28.25Q28.7126 27.3955 28.7126 26.3188Q28.7126 25.2388 29.2013 24.3877Q29.6935 23.5332 30.548 23.0581Q31.4025 22.5796 32.4655 22.5796Q33.5285 22.5796 34.383 23.0581Q35.2375 23.5332 35.7194 24.3877Q36.2048 25.2388 36.2048 26.3188Q36.2048 27.3955 35.7194 28.25Q35.2375 29.1045 34.383 29.5864Q33.5285 30.0684 32.4655 30.0684ZM32.4655 29.1865Q33.2516 29.1865 33.8737 28.8311Q34.4958 28.4756 34.8444 27.8193Q35.1965 27.1597 35.1965 26.3188Q35.1965 25.478 34.8444 24.8218Q34.4958 24.1621 33.8737 23.8066Q33.2516 23.4478 32.4655 23.4478Q31.6828 23.4478 31.0573 23.8066Q30.4352 24.1621 30.0763 24.8218Q29.7209 25.478 29.7209 26.3188Q29.7209 27.1597 30.0763 27.8193Q30.4352 28.4756 31.0573 28.8311Q31.6828 29.1865 32.4655 29.1865ZM42.2296 22.5796Q43.2653 22.5796 44.1027 23.0513Q44.9435 23.5195 45.4186 24.374Q45.8971 25.2251 45.8971 26.3188Q45.8971 27.4229 45.4186 28.2773Q44.9435 29.1318 44.1095 29.6001Q43.279 30.0684 42.2296 30.0684Q41.3307 30.0684 40.6095 29.6992Q39.8883 29.3267 39.4269 28.6123L39.4269 32.7173L38.4357 32.7173L38.4357 22.6377L39.3859 22.6377L39.3859 24.0903Q39.8336 23.3623 40.5685 22.9727Q41.3034 22.5796 42.2296 22.5796ZM42.1579 29.1865Q42.9269 29.1865 43.5558 28.8311Q44.1881 28.4756 44.5436 27.8193Q44.9025 27.1597 44.9025 26.3188Q44.9025 25.478 44.5436 24.8286Q44.1881 24.1758 43.5558 23.8135Q42.9269 23.4478 42.1579 23.4478Q41.3751 23.4478 40.7497 23.8135Q40.1276 24.1758 39.7687 24.8286Q39.4132 25.478 39.4132 26.3188Q39.4132 27.1597 39.7687 27.8193Q40.1276 28.4756 40.7497 28.8311Q41.3751 29.1865 42.1579 29.1865ZM54.762 22.6377L54.762 30L53.8084 30L53.8084 28.6567Q53.4187 29.3267 52.7317 29.6992Q52.0447 30.0684 51.1629 30.0684Q49.7205 30.0684 48.8865 29.2651Q48.0559 28.4585 48.0559 26.9067L48.0559 22.6377L49.0505 22.6377L49.0505 26.8076Q49.0505 27.9697 49.6248 28.5713Q50.199 29.1729 51.262 29.1729Q52.4241 29.1729 53.094 28.4688Q53.7673 27.7612 53.7673 26.5L53.7673 22.6377L54.762 22.6377ZM57.7497 19.6128L58.7409 19.6128L58.7409 30L57.7497 30L57.7497 19.6128ZM64.2894 22.5796Q65.7318 22.5796 66.5009 23.3008Q67.2733 24.022 67.2733 25.437L67.2733 30L66.3197 30L66.3197 28.8516Q65.9847 29.4258 65.3319 29.7471Q64.6825 30.0684 63.787 30.0684Q62.5531 30.0684 61.8251 29.4805Q61.097 28.8926 61.097 27.9287Q61.097 26.9888 61.7772 26.4146Q62.4574 25.8403 63.9408 25.8403L66.2787 25.8403L66.2787 25.3926Q66.2787 24.4424 65.7455 23.9468Q65.2157 23.4478 64.1903 23.4478Q63.493 23.4478 62.847 23.6802Q62.2045 23.9092 61.743 24.3159L61.2953 23.5742Q61.8524 23.0991 62.6351 22.8394Q63.4213 22.5796 64.2894 22.5796ZM63.9408 29.2856Q64.7816 29.2856 65.3832 28.9028Q65.9847 28.5166 66.2787 27.7886L66.2787 26.5854L63.9681 26.5854Q62.078 26.5854 62.078 27.9014Q62.078 28.5439 62.5668 28.9165Q63.059 29.2856 63.9408 29.2856ZM71.1259 24.0767Q71.4745 23.335 72.1684 22.959Q72.8622 22.5796 73.8842 22.5796L73.8842 23.5469L73.6449 23.5332Q72.4828 23.5332 71.8232 24.2476Q71.1669 24.9585 71.1669 26.2471L71.1669 30L70.1757 30L70.1757 22.6377L71.1259 22.6377L71.1259 24.0767ZM75.8777 22.6377L76.8689 22.6377L76.8689 30L75.8777 30L75.8777 22.6377ZM76.3801 21.0244Q76.0725 21.0244 75.8606 20.8159Q75.6521 20.6074 75.6521 20.3135Q75.6521 20.0332 75.8606 19.8247Q76.0725 19.6128 76.3801 19.6128Q76.6878 19.6128 76.8963 19.8179Q77.1082 20.0195 77.1082 20.2964Q77.1082 20.6074 76.8963 20.8159Q76.6878 21.0244 76.3801 21.0244ZM83.7197 29.5522Q83.4394 29.8052 83.0258 29.9385Q82.6157 30.0684 82.1645 30.0684Q81.1289 30.0684 80.5683 29.5112Q80.0112 28.9507 80.0112 27.9287L80.0112 23.4751L78.6953 23.4751L78.6953 22.6377L80.0112 22.6377L80.0112 21.0244L81.0024 21.0244L81.0024 22.6377L83.2446 22.6377L83.2446 23.4751L81.0024 23.4751L81.0024 27.8706Q81.0024 28.5303 81.3305 28.8755Q81.6621 29.2173 82.2773 29.2173Q82.5849 29.2173 82.872 29.1182Q83.1591 29.019 83.371 28.8379L83.7197 29.5522ZM91.7742 22.6377L88.0931 30.8818Q87.6453 31.9175 87.0574 32.3516Q86.4695 32.7856 85.6424 32.7856Q85.1092 32.7856 84.6478 32.6182Q84.1863 32.4507 83.8514 32.1123L84.3128 31.3706Q84.8733 31.9312 85.6561 31.9312Q86.1585 31.9312 86.514 31.6509Q86.8729 31.3706 87.1805 30.7007L87.5052 29.9863L84.2137 22.6377L85.2493 22.6377L88.0213 28.8926L90.7933 22.6377L91.7742 22.6377Z" fill="#737373" fill-opacity="1.000000" fill-rule="evenodd"/>
		<path id="Vector" d="M99.9922 20.9995L104.992 25.9995L109.992 20.9995L111.992 21.9995L104.992 28.9995L97.9922 21.9995L99.9922 20.9995Z" fill="#737373" fill-opacity="1.000000" fill-rule="nonzero"/>
	</g>
	<rect id="option" rx="2.500000" width="140.000000" height="49.000000" transform="translate(0.500000 0.500000)" stroke="#DDDDDD" stroke-opacity="1.000000" stroke-width="1.000000"/>
</svg>
