<svg width="94.000000" height="50.000000" viewBox="0 0 94 50" fill="none" xmlns="http://www.w3.org/2000/svg" xmlns:xlink="http://www.w3.org/1999/xlink">
	<desc>
			Created with Pixso.
	</desc>
	<defs>
		<clipPath id="clip3006_10960">
			<rect id="btn.primary-color.btn-sm" rx="5.000000" width="94.000000" height="50.000000" fill="white" fill-opacity="0"/>
		</clipPath>
	</defs>
	<rect id="btn.primary-color.btn-sm" rx="5.000000" width="94.000000" height="50.000000" fill="#23A6F0" fill-opacity="1.000000"/>
	<g clip-path="url(#clip3006_10960)">
		<path id="h6" d="M30.6816 19.019L30.6816 21.6099L35.2173 21.6099L35.2173 23.4316L30.6816 23.4316L30.6816 27L28.4121 27L28.4121 17.2007L35.8188 17.2007L35.8188 19.019L30.6816 19.019ZM37.2643 19.4668L39.4484 19.4668L39.4484 27L37.2643 27L37.2643 19.4668ZM38.3546 18.4175Q37.7531 18.4175 37.3737 18.0688Q36.9977 17.7168 36.9977 17.2007Q36.9977 16.6812 37.3737 16.3325Q37.7531 15.9805 38.3546 15.9805Q38.9562 15.9805 39.3356 16.3188Q39.715 16.6538 39.715 17.1597Q39.715 17.7031 39.3356 18.062Q38.9562 18.4175 38.3546 18.4175ZM41.6783 16.6128L43.8624 16.6128L43.8624 27L41.6783 27L41.6783 16.6128ZM51.4952 26.6377Q51.1739 26.8735 50.7057 26.9932Q50.2374 27.1128 49.7179 27.1128Q48.3746 27.1128 47.6398 26.4258Q46.9049 25.7388 46.9049 24.4092L46.9049 21.3159L45.7428 21.3159L45.7428 19.6377L46.9049 19.6377L46.9049 17.8022L49.089 17.8022L49.089 19.6377L50.9654 19.6377L50.9654 21.3159L49.089 21.3159L49.089 24.3818Q49.089 24.8569 49.3317 25.1167Q49.5778 25.3765 50.0255 25.3765Q50.545 25.3765 50.9073 25.0962L51.4952 26.6377ZM60.0663 23.2607Q60.0663 23.3052 60.0253 23.8486L54.3275 23.8486Q54.4813 24.5493 55.0555 24.9561Q55.6298 25.3628 56.4842 25.3628Q57.0721 25.3628 57.5267 25.1885Q57.9813 25.0107 58.3744 24.6348L59.5365 25.8926Q58.4735 27.1128 56.4296 27.1128Q55.1547 27.1128 54.1737 26.6172Q53.1927 26.1182 52.6595 25.2363Q52.1298 24.3545 52.1298 23.2334Q52.1298 22.1294 52.6527 21.2407Q53.1791 20.3486 54.0951 19.853Q55.0145 19.3574 56.1493 19.3574Q57.2533 19.3574 58.1488 19.8325Q59.0443 20.3076 59.5536 21.1963Q60.0663 22.085 60.0663 23.2607ZM56.163 21.0083Q55.4213 21.0083 54.9154 21.4287Q54.413 21.8491 54.3002 22.5771L58.0087 22.5771Q57.8993 21.8628 57.3934 21.4355Q56.891 21.0083 56.163 21.0083ZM63.8093 20.4614Q64.2023 19.9146 64.8654 19.6377Q65.5319 19.3574 66.4001 19.3574L66.4001 21.3706Q66.0344 21.3433 65.9113 21.3433Q64.9714 21.3433 64.4382 21.8696Q63.9084 22.3926 63.9084 23.4453L63.9084 27L61.7243 27L61.7243 19.4668L63.8093 19.4668L63.8093 20.4614Z" fill="#FFFFFF" fill-opacity="1.000000" fill-rule="evenodd"/>
	</g>
</svg>
