<svg width="14.999512" height="15.000000" viewBox="0 0 14.9995 15" fill="none" xmlns="http://www.w3.org/2000/svg" xmlns:xlink="http://www.w3.org/1999/xlink">
	<desc>
			Created with Pixso.
	</desc>
	<defs/>
	<path id="Vector" d="M0 0.5C0 0.367432 0.0527344 0.240234 0.146484 0.146484C0.240234 0.0527344 0.367432 0 0.5 0L2 0C2.11157 0 2.21997 0.0373535 2.30762 0.106079C2.39551 0.174683 2.45801 0.270752 2.48511 0.379028L2.88989 2L14.5 2C14.5735 2.00012 14.646 2.01636 14.7124 2.04761C14.7788 2.07886 14.8376 2.12427 14.8843 2.18079C14.9312 2.2373 14.9651 2.30347 14.9836 2.37451C15.002 2.44556 15.0044 2.5199 14.991 2.59204L13.491 10.592C13.4695 10.7065 13.4087 10.8101 13.3191 10.8845C13.2295 10.9591 13.1165 10.9999 13 11L4 11C3.88354 10.9999 3.77051 10.9591 3.68091 10.8845C3.59131 10.8101 3.53052 10.7065 3.50903 10.592L2.01001 2.60706L1.61011 1L0.5 1C0.367432 1 0.240234 0.947266 0.146484 0.853516C0.0527344 0.759766 0 0.632568 0 0.5ZM3.10205 3L4.41504 10L12.585 10L13.8979 3L3.10205 3ZM5 11C4.46948 11 3.96094 11.2107 3.58569 11.5858C3.21069 11.9608 3 12.4696 3 13C3 13.5304 3.21069 14.0392 3.58569 14.4142C3.96094 14.7893 4.46948 15 5 15C5.53052 15 6.03906 14.7893 6.41431 14.4142C6.78931 14.0392 7 13.5304 7 13C7 12.4696 6.78931 11.9608 6.41431 11.5858C6.03906 11.2107 5.53052 11 5 11ZM12 11C11.4695 11 10.9609 11.2107 10.5857 11.5858C10.2107 11.9608 10 12.4696 10 13C10 13.5304 10.2107 14.0392 10.5857 14.4142C10.9609 14.7893 11.4695 15 12 15C12.5305 15 13.0391 14.7893 13.4143 14.4142C13.7893 14.0392 14 13.5304 14 13C14 12.4696 13.7893 11.9608 13.4143 11.5858C13.0391 11.2107 12.5305 11 12 11ZM5 12C5.26514 12 5.51953 12.1053 5.70703 12.2928C5.89453 12.4805 6 12.7347 6 13C6 13.2653 5.89453 13.5195 5.70703 13.7072C5.51953 13.8947 5.26514 14 5 14C4.73486 14 4.48047 13.8947 4.29297 13.7072C4.10547 13.5195 4 13.2653 4 13C4 12.7347 4.10547 12.4805 4.29297 12.2928C4.48047 12.1053 4.73486 12 5 12ZM12 12C12.2651 12 12.5195 12.1053 12.707 12.2928C12.8945 12.4805 13 12.7347 13 13C13 13.2653 12.8945 13.5195 12.707 13.7072C12.5195 13.8947 12.2651 14 12 14C11.7349 14 11.4805 13.8947 11.293 13.7072C11.1055 13.5195 11 13.2653 11 13C11 12.7347 11.1055 12.4805 11.293 12.2928C11.4805 12.1053 11.7349 12 12 12Z" fill="#23A6F0" fill-opacity="1.000000" fill-rule="nonzero"/>
</svg>
