<svg width="15.999512" height="15.000000" viewBox="0 0 15.9995 15" fill="none" xmlns="http://www.w3.org/2000/svg" xmlns:xlink="http://www.w3.org/1999/xlink">
	<desc>
			Created with Pixso.
	</desc>
	<defs/>
	<path id="Vector" d="M8 2.74805L7.28296 2.01111C5.59985 0.281006 2.51392 0.878052 1.3999 3.0531C0.876953 4.07605 0.758789 5.5531 1.71387 7.43799C2.63379 9.25305 4.54785 11.427 8 13.795C11.4519 11.427 13.365 9.25305 14.2859 7.43799C15.241 5.552 15.1238 4.07605 14.5999 3.0531C13.4858 0.878052 10.3999 0.280029 8.7168 2.01001L8 2.74805ZM8 15C-7.33301 4.86804 3.27881 -3.03992 7.82397 1.14307C7.88379 1.198 7.94287 1.255 8 1.31409C8.0564 1.25513 8.11499 1.19836 8.17578 1.14404C12.72 -3.04199 23.333 4.86707 8 15Z" fill="#23A6F0" fill-opacity="1.000000" fill-rule="nonzero"/>
</svg>
