<svg width="46.000000" height="46.000000" viewBox="0 0 46 46" fill="none" xmlns="http://www.w3.org/2000/svg" xmlns:xlink="http://www.w3.org/1999/xlink">
	<desc>
			Created with Pixso.
	</desc>
	<defs>
		<clipPath id="clip3006_10939">
			<rect id="icon" width="16.000000" height="16.000000" transform="translate(15.000000 15.000000)" fill="white" fill-opacity="0"/>
		</clipPath>
		<clipPath id="clip3006_10938">
			<rect id="btn-sm-24" rx="2.500000" width="45.000000" height="45.000000" transform="translate(0.500000 0.500000)" fill="white" fill-opacity="0"/>
		</clipPath>
	</defs>
	<g clip-path="url(#clip3006_10938)">
		<rect id="icon" width="16.000000" height="16.000000" transform="translate(15.000000 15.000000)" fill="#FFFFFF" fill-opacity="0"/>
		<g clip-path="url(#clip3006_10939)">
			<path id="Vector" d="M16 17.5C16 17.1022 16.158 16.7206 16.4395 16.4393C16.7207 16.158 17.1023 16 17.5 16L20.5 16C20.8977 16 21.2793 16.158 21.5605 16.4393C21.842 16.7206 22 17.1022 22 17.5L22 20.5C22 20.8978 21.842 21.2794 21.5605 21.5607C21.2793 21.842 20.8977 22 20.5 22L17.5 22C17.1023 22 16.7207 21.842 16.4395 21.5607C16.158 21.2794 16 20.8978 16 20.5L16 17.5ZM24 17.5C24 17.1022 24.158 16.7206 24.4395 16.4393C24.7207 16.158 25.1023 16 25.5 16L28.5 16C28.8977 16 29.2793 16.158 29.5605 16.4393C29.842 16.7206 30 17.1022 30 17.5L30 20.5C30 20.8978 29.842 21.2794 29.5605 21.5607C29.2793 21.842 28.8977 22 28.5 22L25.5 22C25.1023 22 24.7207 21.842 24.4395 21.5607C24.158 21.2794 24 20.8978 24 20.5L24 17.5ZM16 25.5C16 25.1022 16.158 24.7206 16.4395 24.4393C16.7207 24.158 17.1023 24 17.5 24L20.5 24C20.8977 24 21.2793 24.158 21.5605 24.4393C21.842 24.7206 22 25.1022 22 25.5L22 28.5C22 28.8978 21.842 29.2794 21.5605 29.5607C21.2793 29.842 20.8977 30 20.5 30L17.5 30C17.1023 30 16.7207 29.842 16.4395 29.5607C16.158 29.2794 16 28.8978 16 28.5L16 25.5ZM24 25.5C24 25.1022 24.158 24.7206 24.4395 24.4393C24.7207 24.158 25.1023 24 25.5 24L28.5 24C28.8977 24 29.2793 24.158 29.5605 24.4393C29.842 24.7206 30 25.1022 30 25.5L30 28.5C30 28.8978 29.842 29.2794 29.5605 29.5607C29.2793 29.842 28.8977 30 28.5 30L25.5 30C25.1023 30 24.7207 29.842 24.4395 29.5607C24.158 29.2794 24 28.8978 24 28.5L24 25.5Z" fill="#252B42" fill-opacity="1.000000" fill-rule="nonzero"/>
		</g>
	</g>
	<rect id="btn-sm-24" rx="2.500000" width="45.000000" height="45.000000" transform="translate(0.500000 0.500000)" stroke="#ECECEC" stroke-opacity="1.000000" stroke-width="1.000000"/>
</svg>
