<svg width="46.000000" height="46.000000" viewBox="0 0 46 46" fill="none" xmlns="http://www.w3.org/2000/svg" xmlns:xlink="http://www.w3.org/1999/xlink">
	<desc>
			Created with Pixso.
	</desc>
	<defs>
		<clipPath id="clip3006_10942">
			<rect id="icon" width="16.000000" height="16.000000" transform="translate(15.000000 15.000000)" fill="white" fill-opacity="0"/>
		</clipPath>
		<clipPath id="clip3006_10941">
			<rect id="btn-sm-24" rx="2.500000" width="45.000000" height="45.000000" transform="translate(0.500000 0.500000)" fill="white" fill-opacity="0"/>
		</clipPath>
	</defs>
	<g clip-path="url(#clip3006_10941)">
		<rect id="icon" width="16.000000" height="16.000000" transform="translate(15.000000 15.000000)" fill="#FFFFFF" fill-opacity="0"/>
		<g clip-path="url(#clip3006_10942)">
			<path id="Vector" d="M19.5007 27.5009C19.5007 27.3683 19.5532 27.2411 19.647 27.1473C19.741 27.0536 19.8679 27.0009 20.0007 27.0009L29.0007 27.0009C29.1333 27.0009 29.2605 27.0536 29.3542 27.1473C29.448 27.2411 29.5007 27.3683 29.5007 27.5009C29.5007 27.6335 29.448 27.7607 29.3542 27.8544C29.2605 27.9482 29.1333 28.0009 29.0007 28.0009L20.0007 28.0009C19.8679 28.0009 19.741 27.9482 19.647 27.8544C19.5532 27.7607 19.5007 27.6335 19.5007 27.5009ZM19.5007 23.5009C19.5007 23.3683 19.5532 23.2411 19.647 23.1473C19.741 23.0536 19.8679 23.0009 20.0007 23.0009L29.0007 23.0009C29.1333 23.0009 29.2605 23.0536 29.3542 23.1473C29.448 23.2411 29.5007 23.3683 29.5007 23.5009C29.5007 23.6335 29.448 23.7607 29.3542 23.8544C29.2605 23.9482 29.1333 24.0009 29.0007 24.0009L20.0007 24.0009C19.8679 24.0009 19.741 23.9482 19.647 23.8544C19.5532 23.7607 19.5007 23.6335 19.5007 23.5009ZM19.5007 19.5009C19.5007 19.3683 19.5532 19.2411 19.647 19.1473C19.741 19.0536 19.8679 19.0009 20.0007 19.0009L29.0007 19.0009C29.1333 19.0009 29.2605 19.0536 29.3542 19.1473C29.448 19.2411 29.5007 19.3683 29.5007 19.5009C29.5007 19.6335 29.448 19.7607 29.3542 19.8544C29.2605 19.9482 29.1333 20.0009 29.0007 20.0009L20.0007 20.0009C19.8679 20.0009 19.741 19.9482 19.647 19.8544C19.5532 19.7607 19.5007 19.6335 19.5007 19.5009ZM18.3547 18.1469C18.4011 18.1934 18.4382 18.2485 18.4634 18.3093C18.4885 18.37 18.5015 18.4351 18.5015 18.5009C18.5015 18.5667 18.4885 18.6318 18.4634 18.6925C18.4382 18.7533 18.4011 18.8085 18.3547 18.8549L16.8547 20.3549C16.8081 20.4014 16.7529 20.4384 16.6924 20.4636C16.6316 20.4888 16.5664 20.5018 16.5007 20.5018C16.4348 20.5018 16.3696 20.4888 16.3091 20.4636C16.2483 20.4384 16.1931 20.4014 16.1467 20.3549L15.6467 19.8549C15.6001 19.8084 15.5632 19.7532 15.5381 19.6925C15.5129 19.6317 15.5 19.5667 15.5 19.5009C15.5 19.4351 15.5129 19.3701 15.5381 19.3093C15.5632 19.2486 15.6001 19.1934 15.6467 19.1469C15.6931 19.1004 15.7483 19.0635 15.8091 19.0384C15.8699 19.0132 15.9348 19.0002 16.0007 19.0002C16.0664 19.0002 16.1316 19.0132 16.1921 19.0384C16.2529 19.0635 16.3081 19.1004 16.3547 19.1469L16.5007 19.2939L17.6467 18.1469C17.6931 18.1003 17.7483 18.0634 17.8091 18.0382C17.8696 18.013 17.9348 18 18.0007 18C18.0664 18 18.1316 18.013 18.1924 18.0382C18.2529 18.0634 18.3081 18.1003 18.3547 18.1469ZM18.3547 22.1469C18.4011 22.1934 18.4382 22.2485 18.4634 22.3093C18.4885 22.37 18.5015 22.4351 18.5015 22.5009C18.5015 22.5667 18.4885 22.6318 18.4634 22.6925C18.4382 22.7533 18.4011 22.8085 18.3547 22.8549L16.8547 24.3549C16.8081 24.4014 16.7529 24.4384 16.6924 24.4636C16.6316 24.4888 16.5664 24.5018 16.5007 24.5018C16.4348 24.5018 16.3696 24.4888 16.3091 24.4636C16.2483 24.4384 16.1931 24.4014 16.1467 24.3549L15.6467 23.8549C15.5527 23.761 15.5 23.6337 15.5 23.5009C15.5 23.3681 15.5527 23.2408 15.6467 23.1469C15.7405 23.053 15.8679 23.0002 16.0007 23.0002C16.1333 23.0002 16.2607 23.053 16.3547 23.1469L16.5007 23.2939L17.6467 22.1469C17.6931 22.1003 17.7483 22.0634 17.8091 22.0382C17.8696 22.013 17.9348 22 18.0007 22C18.0664 22 18.1316 22.013 18.1924 22.0382C18.2529 22.0634 18.3081 22.1003 18.3547 22.1469ZM18.3547 26.1469C18.4011 26.1934 18.4382 26.2485 18.4634 26.3093C18.4885 26.37 18.5015 26.4351 18.5015 26.5009C18.5015 26.5667 18.4885 26.6318 18.4634 26.6925C18.4382 26.7533 18.4011 26.8085 18.3547 26.8549L16.8547 28.3549C16.8081 28.4014 16.7529 28.4384 16.6924 28.4636C16.6316 28.4888 16.5664 28.5018 16.5007 28.5018C16.4348 28.5018 16.3696 28.4888 16.3091 28.4636C16.2483 28.4384 16.1931 28.4014 16.1467 28.3549L15.6467 27.8549C15.5527 27.761 15.5 27.6337 15.5 27.5009C15.5 27.3681 15.5527 27.2408 15.6467 27.1469C15.7405 27.053 15.8679 27.0002 16.0007 27.0002C16.1333 27.0002 16.2607 27.053 16.3547 27.1469L16.5007 27.2939L17.6467 26.1469C17.6931 26.1003 17.7483 26.0634 17.8091 26.0382C17.8696 26.013 17.9348 26 18.0007 26C18.0664 26 18.1316 26.013 18.1924 26.0382C18.2529 26.0634 18.3081 26.1003 18.3547 26.1469Z" fill="#737373" fill-opacity="1.000000" fill-rule="evenodd"/>
		</g>
	</g>
	<rect id="btn-sm-24" rx="2.500000" width="45.000000" height="45.000000" transform="translate(0.500000 0.500000)" stroke="#ECECEC" stroke-opacity="1.000000" stroke-width="1.000000"/>
</svg>
