<svg width="16.000488" height="15.998291" viewBox="0 0 16.0005 15.9983" fill="none" xmlns="http://www.w3.org/2000/svg" xmlns:xlink="http://www.w3.org/1999/xlink">
	<desc>
			Created with Pixso.
	</desc>
	<defs/>
	<path id="Vector" d="M11.7429 10.3422C12.7112 9.02087 13.1448 7.38269 12.9573 5.75525C12.7695 4.12793 11.9744 2.63147 10.7307 1.56531C9.48706 0.499023 7.88672 -0.0582275 6.24976 0.00488281C4.61279 0.0678711 3.06006 0.746704 1.9021 1.9054C0.744141 3.06421 0.0666504 4.61743 0.00463867 6.25439C-0.057373 7.89136 0.501221 9.49133 1.56836 10.7343C2.6355 11.9771 4.13232 12.7712 5.76001 12.9578C7.38745 13.1443 9.02539 12.7094 10.3459 11.7401L10.345 11.7401C10.375 11.7802 10.407 11.8181 10.4429 11.8551L14.293 15.7052C14.4805 15.8928 14.7349 15.9983 15 15.9983C15.2654 15.9984 15.5198 15.8932 15.7073 15.7057C15.895 15.5182 16.0005 15.2638 16.0005 14.9985C16.0007 14.7333 15.8955 14.4788 15.708 14.2911L11.8579 10.4412C11.8223 10.4049 11.7837 10.3716 11.7429 10.3412L11.7429 10.3422ZM12.001 6.49817C12.001 7.22046 11.8586 7.93567 11.5823 8.60291C11.3059 9.27014 10.9006 9.87646 10.3899 10.3872C9.87915 10.8979 9.27295 11.3031 8.60571 11.5795C7.93848 11.8558 7.22314 11.9982 6.50098 11.9982C5.77856 11.9982 5.06348 11.8558 4.39624 11.5795C3.72876 11.3031 3.12256 10.8979 2.61182 10.3872C2.10107 9.87646 1.69604 9.27014 1.41968 8.60291C1.14307 7.93567 1.00098 7.22046 1.00098 6.49817C1.00098 5.03943 1.58032 3.6405 2.61182 2.60901C3.64331 1.57764 5.04224 0.998169 6.50098 0.998169C7.95947 0.998169 9.35864 1.57764 10.3899 2.60901C11.4214 3.6405 12.001 5.03943 12.001 6.49817Z" fill="#23A6F0" fill-opacity="1.000000" fill-rule="nonzero"/>
</svg>
